<svg xmlns="http://www.w3.org/2000/svg" width="226.614" height="248.37" viewBox="0 0 226.614 248.37">
  <g id="Group_8" data-name="Group 8" transform="translate(-73.281 -255.737)" opacity="0.7">
    <g id="Group_40" data-name="Group 40" transform="translate(73.281 255.737)">
      <path id="Path_18" data-name="Path 18" d="M749.414,776.949q-10.425,0-20.849,0c-.542,0-1.087-.009-1.627-.05a6.519,6.519,0,0,1-6.06-4.654c-.959-2.729-1.8-5.5-2.7-8.251q-5.392-16.561-10.788-33.12c-1.152-3.529-.273-6.272,2.746-8.464q17.263-12.537,34.519-25.083a8.523,8.523,0,0,1,3.351-1.715,6.722,6.722,0,0,1,5.451,1.191q5.354,3.9,10.7,7.8,11.971,8.737,23.939,17.477c.263.192.526.384.787.579a6.726,6.726,0,0,1,2.515,7.883q-2.509,7.742-5.037,15.478c-2.811,8.633-5.661,17.253-8.413,25.9a6.941,6.941,0,0,1-6.606,5c-1.338-.02-2.678.025-4.017.026Q758.373,776.952,749.414,776.949Zm27.7-46.161L749.42,710.577,721.592,730.8l10.58,32.528h34.349Z" transform="translate(-633.47 -622.188)"/>
      <path id="Path_19" data-name="Path 19" d="M656.238,256.406l-11.4-8.31,1.115-3.574-54.333-39.653-54.6,39.667,1.155,3.644-11.475,8.327c-.488-1.494-.936-2.864-1.383-4.235-.886-2.716-1.784-5.429-2.654-8.15a6.539,6.539,0,0,1,1.261-6.513,8.825,8.825,0,0,1,1.622-1.429q17.6-12.806,35.218-25.591l26.528-19.268a6.727,6.727,0,0,1,8.619-.041q30.831,22.492,61.661,44.985a6.84,6.84,0,0,1,3.084,5.893,6.736,6.736,0,0,1-.34,1.913c-1.241,3.894-2.515,7.777-3.782,11.663C656.464,255.934,656.361,256.125,656.238,256.406Z" transform="translate(-475.605 -189.737)"/>
      <path id="Path_20" data-name="Path 20" d="M448.083,647.388H465.8l4.408,13.543h-1.25q-12.65,0-25.3,0a6.817,6.817,0,0,1-7.054-5.13c-4.456-13.688-8.872-27.39-13.382-41.06a7.225,7.225,0,0,1,2.706-8.314q17.522-12.635,34.954-25.395a7.321,7.321,0,0,1,8.927.052c7.581,5.632,15.241,11.156,22.869,16.724.375.274.742.558,1.228.923l-11.459,8.335-17.148-12.5-27.832,20.215Z" transform="translate(-390.549 -523.057)"/>
      <path id="Path_21" data-name="Path 21" d="M1110.925,660.173c.118-.45.184-.763.282-1.066q1.846-5.676,3.7-11.35c.358-1.1.186-1.061,1.51-1.061l15.313,0h1.238l10.615-32.615L1115.9,593.874l-17.2,12.488-11.4-8.311c.26-.232.448-.432.666-.59q11.9-8.653,23.811-17.294a6.675,6.675,0,0,1,8.276.012q17.637,12.856,35.257,25.735a6.715,6.715,0,0,1,2.551,7.967q-5.012,15.433-10.048,30.857c-1.188,3.646-2.349,7.3-3.573,10.936a6.377,6.377,0,0,1-4.446,4.25,7.267,7.267,0,0,1-2.028.306q-12.978.03-25.957.012C1111.561,660.241,1111.313,660.2,1110.925,660.173Z" transform="translate(-958.745 -522.37)"/>
      <path id="Path_22" data-name="Path 22" d="M1223.971,1532.586c-.3.431-.585.87-.9,1.293a16.3,16.3,0,0,1-13.916,7.088,18.23,18.23,0,0,1-12.67-4.826,19.061,19.061,0,0,1-5.722-10.023,23.835,23.835,0,0,1,.815-14.4,18.864,18.864,0,0,1,14.237-11.983,21.468,21.468,0,0,1,14.8,1.684,20.654,20.654,0,0,1,10.9,17.97c.012,6.225.1,12.454-.062,18.676a19.9,19.9,0,0,1-5.327,13.094,19.476,19.476,0,0,1-13.408,6.535,23.6,23.6,0,0,1-13.984-3.034,21.248,21.248,0,0,1-5.548-4.648c-.117-.138-.236-.275-.345-.419-1.176-1.553-1.2-2.934-.067-4.232a3.7,3.7,0,0,1,4.711-.865,5.468,5.468,0,0,1,1.286,1.145c4.1,4.859,9.42,6.16,15.38,4.9,4.909-1.037,7.786-4.452,9.263-9.127a19.29,19.29,0,0,0,.742-5.792c0-1,0-1.991,0-2.986Zm-26.62-12.375a38.344,38.344,0,0,0,.572,3.853,12.937,12.937,0,0,0,14.115,10.1,12.427,12.427,0,0,0,11.177-8.467,16.062,16.062,0,0,0,.87-7.157c-.407-5.351-3.727-11.49-11.487-12.454a12.966,12.966,0,0,0-13.016,6.038A16.141,16.141,0,0,0,1197.351,1520.211Z" transform="translate(-1046.596 -1309.405)"/>
      <path id="Path_23" data-name="Path 23" d="M920.053,1534.868a31.479,31.479,0,0,1-4.561,3.671,18.824,18.824,0,0,1-26.286-6.635c-4.165-7.125-4.2-17.944,1.779-24.97a20.9,20.9,0,0,1,36.05,7.864,23.123,23.123,0,0,1,.738,5.9q.022,8.035,0,16.071a7.489,7.489,0,0,1-.091,1.188,3.476,3.476,0,0,1-2.854,3.032,3.764,3.764,0,0,1-3.987-1.336,4.09,4.09,0,0,1-.786-2.653C920.042,1536.291,920.053,1535.579,920.053,1534.868Zm-26.392-14.44c-.113,7.8,5.443,13.4,11.712,14.036,4.818.487,8.9-.972,11.919-4.794,3.223-4.078,3.817-8.781,2.424-13.667a12.407,12.407,0,0,0-9.229-9.2,12.72,12.72,0,0,0-13.088,3.724A13.792,13.792,0,0,0,893.661,1520.428Z" transform="translate(-786.84 -1309.767)"/>
      <path id="Path_24" data-name="Path 24" d="M226.18,1427.373c.286-.641.478-1.056.657-1.476q9.209-21.707,18.416-43.415c.071-.166.149-.33.211-.5.691-1.894,2.1-2.651,4.476-2.236a3.165,3.165,0,0,1,2.475,4.12,5.931,5.931,0,0,1-.355,1.022q-11.146,25.6-22.305,51.185a3.637,3.637,0,0,1-4.591,2.24,3.85,3.85,0,0,1-2.432-2.317c-.748-1.645-1.459-3.306-2.183-4.962q-9.752-22.3-19.5-44.6a14.073,14.073,0,0,1-.795-2.242,5.981,5.981,0,0,1-.139-1.823,2.724,2.724,0,0,1,1.764-2.406,3.951,3.951,0,0,1,5.34,2.069c.981,2.253,1.9,4.534,2.844,6.8q7.783,18.66,15.568,37.321C225.77,1426.478,225.923,1426.8,226.18,1427.373Z" transform="translate(-200.101 -1207.184)"/>
      <path id="Path_25" data-name="Path 25" d="M1501.271,1522.889a10.728,10.728,0,0,0,1.123,3.907,13.374,13.374,0,0,0,10.1,7.564,15.421,15.421,0,0,0,11.871-2.557,3.926,3.926,0,0,1,4.921.047,2.934,2.934,0,0,1-.15,4.826,20.6,20.6,0,0,1-5.841,3.044,22.576,22.576,0,0,1-16.842-.4c-7.266-3.129-11.271-8.8-12.115-16.666a22.081,22.081,0,0,1,1.736-11.668,18.832,18.832,0,0,1,15.163-11.4,20.177,20.177,0,0,1,10.477.955c5.6,2.168,9.009,6.349,10.656,12.042a27.088,27.088,0,0,1,.92,6.752,3.371,3.371,0,0,1-3.507,3.557c-3.836-.035-7.673-.009-11.51-.008h-17Zm25.05-6.074c-.094-.555-.154-1.045-.263-1.523-1.132-4.98-4.76-9.743-12.177-9.444-6.233.251-10.608,3.6-12.264,9.569-.121.437-.2.885-.312,1.4Z" transform="translate(-1306.678 -1309.553)"/>
      <path id="Path_26" data-name="Path 26" d="M672.243,1404.921q0-10.259.008-20.517a7.217,7.217,0,0,1,.2-1.927,3.611,3.611,0,0,1,4.044-2.527,3.565,3.565,0,0,1,3.183,3.184,16.057,16.057,0,0,1,.077,1.733q.006,19.54.017,39.08a18.469,18.469,0,0,0,.331,3.552,7.521,7.521,0,0,0,.97,2.271,2.857,2.857,0,0,0,2.63,1.442c.579,0,1.158-.014,1.737.007a3.272,3.272,0,0,1,3.167,2.491,3.408,3.408,0,0,1-1.208,3.966,5.787,5.787,0,0,1-3.36,1.063,10.262,10.262,0,0,1-9.181-4.6,15.345,15.345,0,0,1-2.576-7.946c-.05-.721-.036-1.447-.037-2.17Q672.241,1414.474,672.243,1404.921Z" transform="translate(-603.83 -1207.47)"/>
      <path id="Path_27" data-name="Path 27" d="M781.435,1405.066q0-10.2,0-20.409c0-.434,0-.869.03-1.3a3.729,3.729,0,0,1,7.428.053c.028.433.022.868.022,1.3q0,19.7.018,39.407a21.148,21.148,0,0,0,.4,3.652,5.9,5.9,0,0,0,.74,1.792,3.074,3.074,0,0,0,2.931,1.7c.542-.018,1.086-.017,1.628,0a3.306,3.306,0,0,1,3.139,2.395,3.474,3.474,0,0,1-1.2,4.07,5.829,5.829,0,0,1-3.364,1.056,10.278,10.278,0,0,1-9.24-4.693,14.711,14.711,0,0,1-2.468-7.536c-.1-1.55-.062-3.11-.064-4.666Q781.428,1413.479,781.435,1405.066Z" transform="translate(-697.198 -1207.519)"/>
      <path id="Path_28" data-name="Path 28" d="M585.367,1522.134q0,7.922,0,15.844c0,.4.01.8-.018,1.193a3.426,3.426,0,0,1-2.188,3.214,3.866,3.866,0,0,1-4.253-.674,3.459,3.459,0,0,1-1.156-2.375c-.032-.4-.029-.795-.029-1.193q0-16.006,0-32.013c0-.361,0-.724.017-1.085a3.649,3.649,0,0,1,3.784-3.529,3.593,3.593,0,0,1,3.819,3.472c.051.865.025,1.736.025,2.6Q585.369,1514.863,585.367,1522.134Z" transform="translate(-523.004 -1311.443)"/>
      <path id="Path_29" data-name="Path 29" d="M574.82,1396.656a4.967,4.967,0,1,1,4.925-4.987A4.964,4.964,0,0,1,574.82,1396.656Z" transform="translate(-516.261 -1213.282)"/>
    </g>
  </g>
</svg>
