<svg id="Layer_1" data-name="Layer 1" xmlns="http://www.w3.org/2000/svg" viewBox="0 0 704.48 706.35"><defs><style>.cls-1{fill:#cbced3;}.cls-1,.cls-10,.cls-11,.cls-12,.cls-13,.cls-14,.cls-15,.cls-16,.cls-17,.cls-18,.cls-19,.cls-2,.cls-20,.cls-21,.cls-22,.cls-23,.cls-24,.cls-3,.cls-4,.cls-5,.cls-6,.cls-7,.cls-8,.cls-9{fill-rule:evenodd;}.cls-2{fill:#75808a;}.cls-3{fill:#a6acb5;}.cls-4{fill:#88919b;}.cls-5{fill:#e5e7e8;}.cls-6{fill:#f5f8f8;}.cls-7{fill:#606871;}.cls-8{fill:#4a5157;}.cls-9{fill:#6e7781;}.cls-10{fill:#44494e;}.cls-11{fill:#5b636a;}.cls-12{fill:#717b86;}.cls-13{fill:#636b74;}.cls-14{fill:#373c3f;}.cls-15{fill:#2f3335;}.cls-16{fill:#25292b;}.cls-17{fill:#010101;fill-opacity:0.35;}.cls-18{fill:#76838a;}.cls-19{fill:#e2e6e7;}.cls-20{fill:#6397cb;}.cls-21{fill:#4887c2;}.cls-22{fill:#3973ac;}.cls-23{fill:#5f686d;}.cls-24{fill:#7d8791;}</style></defs><path class="cls-1" d="M483.58,205.69l-7.8-7.83,7.41-12.24,11,11-8.86,10.76ZM258.66,374.32,241.36,357l6.22-6.22,2.06-2.06,31.57-31.57,17.29,17.3-39.84,39.88,21.84,21.83L227,449.66l-16.14-16.17-5.71-5.67Zm86.19-95.9-2.77-2.83-7.22-7.22,75.83-75.82L427.21,209l-75.85,75.9Zm27.35,27.32,75.88-75.83,27.35,27.38-75.82,75.83-1.93-1.9L374.16,307.7Zm107.09-57.63L494,229.4l9.7,9.66,4,4-11.67,21.84-15.16-15.21ZM349.07,385l15-27.45,1.42,1.45,10.95,10.95-5.48,36.89L349.07,385l-39.84,39.88L280.5,396.15l39.87-39.84Z"/><path class="cls-2" d="M436.39,205.2l-9.18,3.8-16.52-16.45L421.16,190l6,6Zm31.79-14.91,3.16,3.09-5.06,8.28-4-4.06-4.93-4.89,4.25-9.05Zm17.17,17.14L497.91,220l1.81,1.74-7.28,6-14.85-14.82,6-7.24Zm-28.12,18.65,22.06,22,1.62,1.61-5.48,7.57-27.35-27.38,7.58-5.47Z"/><path class="cls-3" d="M508.7,211.13,497.91,220l-12.56-12.59,8.86-10.76Zm-1,32,4.89,4.92,6,6-9.21,24.26L500.13,269l-4.06-4ZM196.27,418.9l-8.41-8.41,53.5-53.5,17.3,17.33-53.51,53.5Zm57.2,57.21-24.22-24.2-6.73,8.73-13.31-13.27-3.54-3.61,5.19-10.27L227,449.66l53.5-53.51,28.73,28.71L349.07,385l21.87,21.84,5.48-36.89,3.61,3.61,6.21,6.19,2,44.42-17.3-17.33L331.06,446.7l-21.83-21.84-53.51,53.47ZM471.34,193.38l-3.16-3.09,6.28-13.4,8.73,8.73-7.41,12.24Zm25,84.75L420.45,354l-1.74-1.74-3.16-3.12-13.43-13.47-2.51-2.54,75.82-75.83Zm-143.2,8.54,3.15,3.12L346.91,305l11.69,11.73,11.08-13.43,2.52,2.48,2,2-11.11,13.4L360,318l-8,8L341.6,315.63l-10.47-10.51,7.95-7.95,4.71,4.67Z"/><path class="cls-4" d="M497.91,220l10.79-8.89,11,11-12.21,7.44-7.79-7.83ZM429.76,363.27,427,360.5,420.45,354l75.85-75.86,16.56,16.53L437,370.55ZM277.56,500.2l-5.66-5.7-16.18-16.17,53.51-53.47,21.83,21.84,39.88-39.88,17.3,17.33L356.7,455.72c-.7.71-1.41,1.42-2.12,2.12L348.39,464,331.06,446.7Zm-24.09-24.09-8.76,6.73-1.42-1.42-19.35-19.33L207,481.55l-2.22-2.19-5.06-5.12-5.57-5.54,15.07-21.33,13.31,13.27,6.73-8.73Zm-57.2-57.21,8.88,8.92,5.71,5.67-5.19,10.27-8.12-8.05-5.28-5.31ZM342.08,275.59l2.77,2.83L336.93,295l2.15,2.19-7.95,7.95-1.07-1.06L314.6,288.6l8-8,11.54,11.54Zm141.5-69.9-6,7.24L476,211.35l-9.73-9.69,5.06-8.28,4.44,4.48Zm-35.5,24.22L427.21,209l9.18-3.8,4,4.06,15.24,15.18Zm-101.68,110-10.95-10.95-3.58-3.58,9.73-9.72L352,326l8-8,3.06,3.09,21.19,21.23,13.44-11.11,1.93,1.9,2.51,2.54-13.43,11.08-1.36-1.35-7.95,8-4.16-4.16-19.1-19.1Z"/><path class="cls-5" d="M364.05,357.53l-15,27.45-28.7-28.67L280.5,396.15l-21.84-21.83,39.84-39.88-17.29-17.3,44.41,2,6.25,6.24,3.58,3.58-36.95,5.51,21.87,21.87,27.45-15ZM436.39,205.2,427.12,196l24.28-9.25,5.93,6,4.93,4.89-21.84,11.66ZM494,229.4l-14.72,18.71-22.06-22L476,211.35l1.58,1.58,14.85,14.82ZM427.21,209l20.87,20.91L372.2,305.74l-2.52-2.48-13.43-13.47-3.15-3.12-1.74-1.77Z"/><path class="cls-6" d="M476,211.35l-18.78,14.73-1.57-1.64-15.24-15.18,21.84-11.66,4,4.06ZM335.45,328.93l10.95,10.95,1.42,1.42-27.45,15L298.5,334.44Z"/><path class="cls-7" d="M500.13,269l-3.83,9.18-20.87-20.84,5.48-7.57,15.16,15.21Zm-7.69-41.2,7.28-6,7.79,7.83L512,234l-8.28,5L494,229.4Z"/><path class="cls-8" d="M512.63,248l-4.89-4.92-4-4,8.28-5,3.09,3.13,6.61,6.63ZM496.3,278.13l3.83-9.18,9.28,9.28,6,6-2.51,10.47Z"/><path class="cls-9" d="M515.08,237.16,512,234l-4.48-4.44,12.21-7.44,8.73,8.76ZM286.45,509.09l-8.89-8.89,53.5-53.5L348.39,464l-53.5,53.5Zm-81.78-8.41-8.76,8.83,0,0-.26-.26-.19-.16-2.68-2.58-.89-.93-2-1.87,6.67-11.08,4.86,4.83Zm1-56.92,3.54,3.61L194.14,468.7,184,458.52l13.55-22.81ZM341.6,315.63l-9.73,9.72-6.25-6.24-5.28-5.29,9.72-9.76,1.07,1.06Zm33.62,33.59L365.47,359l-1.42-1.45L347.82,341.3l-1.42-1.42,9.72-9.76Zm13.47-2.48,11.69,11.73,3.13,3.12,4.7,4.64-8,8-10.47-10.44-10.4-10.4,7.95-8Zm-144,136.1,8.76-6.73,2.25,2.22L271.9,494.5l-10.31,5.25L258,496.14Zm-1.42-1.42-19.45,16.94-4.22-4.18-8.44-8.44L207,481.55l16.95-19.46Z"/><path class="cls-10" d="M386.24,379.73,380,373.54l9.75-9.76,10.47,10.44,1,1.06L391.56,385ZM236.66,511.21,258,496.14l3.58,3.61,8.08,8.05-22.84,13.56ZM207,481.55l4.19,4.19-9.76,11.69-4.86-4.83-.13-.13,8.34-13.11ZM400.38,358.47l-11.69-11.73,13.43-11.08,13.43,13.47Zm3.13,3.12,15.2-9.34,1.74,1.74L427,360.5l-16.62,7.92-2.13-2.19Zm-64.43-64.42L336.93,295l7.92-16.56,6.51,6.48,1.74,1.77-9.31,15.17Zm35.08,10.53,23.52,23.52-13.44,11.11L363.05,321.1Zm-17.91-17.91,13.43,13.47L358.6,316.69,346.91,305Z"/><path class="cls-11" d="M401.25,375.28l-1-1.06,8-8,2.13,2.19,2.83,2.8,11.56,11.57-8,7.95ZM271.9,494.5l5.66,5.7,8.89,8.89-11.46,4-5.32-5.28-8.08-8.05ZM258,496.14l-21.35,15.07-5.54-5.53L226,500.59l-2.19-2.23,19.45-16.94,1.42,1.42Zm-62.1,13.37,8.76-8.83,3.29,3.25,4.79,4.87-11.07,6.67-1.87-1.94L198,511.67l-1.65-1.74-.19-.17ZM389.78,363.78,380,373.54l-3.61-3.61L365.47,359l9.75-9.76,4.16,4.16Z"/><polygon class="cls-12" points="418.71 352.25 403.51 361.59 400.38 358.47 415.56 349.13 418.71 352.25"/><polygon class="cls-13" points="426.96 360.5 429.75 363.27 413.17 371.22 410.34 368.42 426.96 360.5"/><path class="cls-14" d="M204.77,479.36l-8.34,13.11-3.9-4,7.18-14.27Zm6.41,6.38,8.44,8.44L208,503.93l-3.29-3.25-3.25-3.25Z"/><polygon class="cls-15" points="223.84 498.36 226.03 500.59 212.92 508.93 212.75 508.8 207.96 503.94 219.62 494.18 223.84 498.36"/><polygon class="cls-16" points="212.92 508.93 226.03 500.59 231.12 505.68 216.85 512.89 212.92 508.93"/><path class="cls-17" d="M481.56,281a9.75,9.75,0,0,0-7.12-2.93,9.65,9.65,0,0,0-7.08,2.93l-9.26,9.26a10.07,10.07,0,0,0,0,14.2L480.57,327l-2.19,2.19-22.47-22.48a13.13,13.13,0,0,1,0-18.56l9.26-9.27a13.15,13.15,0,0,1,18.57,0l22.47,22.51L504,303.54ZM356.15,265.6a12.71,12.71,0,0,1,3.84-9.3l38.47-38.47a13.13,13.13,0,0,1,18.56,0l6.41,6.41a13.13,13.13,0,0,1,0,18.56L385,281.24a13.07,13.07,0,0,1-18.57,0L360,274.86A12.63,12.63,0,0,1,356.15,265.6Zm22.37-9a5.45,5.45,0,0,1,3.88,1.66,5.29,5.29,0,0,1,1.62,3.84A5.4,5.4,0,0,1,382.4,266l-2.89,2.85a5.47,5.47,0,0,1-9.34-3.87,5.29,5.29,0,0,1,1.59-3.88l2.89-2.85A5.41,5.41,0,0,1,378.52,256.61Zm29.24-39.52a9.69,9.69,0,0,0-7.11,2.92l-38.47,38.47a10.07,10.07,0,0,0,0,14.2l6.41,6.37a10.06,10.06,0,0,0,14.19,0l38.47-38.43a10.09,10.09,0,0,0,0-14.2L414.84,220A9.64,9.64,0,0,0,407.76,217.09ZM247.8,350.6l2.18-2.18,23.46,23.46a13.13,13.13,0,0,1,0,18.56L242.55,421.3a13.1,13.1,0,0,1-18.53,0l-23.45-23.46,2.18-2.18,23.46,23.46a10,10,0,0,0,14.16,0l30.89-30.86a10.09,10.09,0,0,0,0-14.2Zm198.78-38.78a4.29,4.29,0,0,1,.91,4.19,10.31,10.31,0,0,1-2.95,5.07,10.09,10.09,0,0,1-5.05,2.92,4,4,0,0,1-5.14-5.14,10.12,10.12,0,0,1,2.93-5,10.31,10.31,0,0,1,5.07-2.95A4.35,4.35,0,0,1,446.58,311.82ZM432.52,331a10.41,10.41,0,0,1-3,5.11,10,10,0,0,1-5,2.89,4,4,0,0,1-5.14-5.11,10.08,10.08,0,0,1,2.91-5.07,10.26,10.26,0,0,1,5.08-2.93,4,4,0,0,1,5.14,5.11Zm-78.45,80.35a10.08,10.08,0,0,0-14.19,0l-29.52,29.56a9.65,9.65,0,0,0-2.93,7.08,9.75,9.75,0,0,0,2.93,7.12l23.49,23.49-2.18,2.18-23.49-23.49a13,13,0,0,1,0-18.56l29.52-29.56a13.13,13.13,0,0,1,18.56,0l23.53,23.53-2.18,2.19Zm-1.37,30.54a21,21,0,0,1,3.91-5.1,21.6,21.6,0,0,1,5.14-3.95c1.68-.84,2.8-1,3.39-.39s.43,1.72-.43,3.39a23.25,23.25,0,0,1-9,9.05c-1.65.85-2.77,1-3.35.39S351.86,443.55,352.7,441.87Zm-54.95,17.94v0a7.32,7.32,0,0,1,2.26,5.32,7.4,7.4,0,0,1-2.26,5.39L286.37,482a7.21,7.21,0,0,1-5.35,2.19h0a7.15,7.15,0,0,1-5.32-2.19l0,0a7.47,7.47,0,0,1,0-10.71L287,459.81a7.33,7.33,0,0,1,5.32-2.22h0A7.4,7.4,0,0,1,297.75,459.81ZM228,387.1c.72.72.76,1.92.1,3.59a14.67,14.67,0,0,1-3.45,5.07,14.37,14.37,0,0,1-5,3.42c-1.69.67-2.9.65-3.62-.07s-.77-1.95-.11-3.66a14.86,14.86,0,0,1,3.45-5,15.13,15.13,0,0,1,5-3.48C226,386.32,227.24,386.37,228,387.1ZM295.57,462v0a4.46,4.46,0,0,0-3.17-1.34h0a4.36,4.36,0,0,0-3.14,1.34L277.81,473.4a4.34,4.34,0,0,0-1.3,3.17,4.28,4.28,0,0,0,1.3,3.17l0,0a4.18,4.18,0,0,0,3.13,1.3h0a4.29,4.29,0,0,0,3.17-1.3l11.38-11.41a4.41,4.41,0,0,0,1.33-3.21A4.27,4.27,0,0,0,295.57,462Z"/><path class="cls-18" d="M245.44,326.4l8.49,8.49,8.31,1.23-11.41,11.42-1.24-8.32-8.48-8.49Zm79.85-79.86,4.34-4.33,10.95,10.95,8.28,1.2-11.41,11.41-1.24-8.27Z"/><polygon class="cls-3" points="325.29 246.54 245.44 326.4 241.11 330.73 229.59 342.25 2.24 114.89 113.98 3.15 341.32 230.47 329.63 242.21 325.29 246.54"/><path class="cls-19" d="M302.86,201.31,296.13,208l13.77,13.77,6.73-6.69Zm-118.54-105,13.81,13.78,6.7-6.69L191.05,89.57Zm12.16,15.43L182.7,98,176,104.64l13.8,13.81Zm15.43,15.43-13.78-13.8-6.73,6.72,13.81,13.78Zm1.65-1.65,6.69-6.7L206.48,105l-6.73,6.72Zm-10,10-13.78-13.77-6.73,6.69,13.78,13.81ZM222.72,118a1.19,1.19,0,0,1,.32.84,1.09,1.09,0,0,1-.32.81l-50.13,50.13a1.06,1.06,0,0,1-.81.32,1.07,1.07,0,0,1-.81-.32L63,61.81a1.19,1.19,0,0,1-.35-.85,1.1,1.1,0,0,1,.35-.81L113.13,10a1.16,1.16,0,0,1,.85-.32,1.07,1.07,0,0,1,.81.32Zm2.22,3.8a1.21,1.21,0,0,1,1.62,0l108,107.94a1.16,1.16,0,0,1,.32.85,1.08,1.08,0,0,1-.32.81L284.4,281.48a1.16,1.16,0,0,1-.85.32,1.07,1.07,0,0,1-.81-.32l-107.93-108a1,1,0,0,1-.31-.81,1.06,1.06,0,0,1,.31-.81Zm7.89,23,6.69-6.73-13.77-13.77-6.73,6.7ZM217.4,132.58l-6.73,6.73,13.81,13.77,6.7-6.73Zm-1.27,28.85,6.69-6.73-13.77-13.77-6.72,6.73Zm8.35-5.07-6.73,6.73,13.77,13.77,6.73-6.73Zm8.35-8.35-6.73,6.69,13.81,13.81,6.69-6.73Zm7.08,23.78-6.73,6.69L247,192.29l6.72-6.73Zm-10,6.69-13.78-13.77-6.73,6.72,13.78,13.78Zm-44.28-14.13,13.77,13.78,6.73-6.7-13.78-13.8Zm15.07-15.07L194,156l13.78,13.77,6.72-6.69Zm7.05,23.78-6.69,6.72,13.77,13.78,6.72-6.69Zm-10,6.72L184,166l-6.69,6.69,13.77,13.81Zm1.62,1.62-6.7,6.73,13.78,13.78,6.73-6.7ZM196,215.75l13.77,13.78,6.73-6.73L202.64,209Zm5.07-8.38-13.77-13.78-6.73,6.73,13.77,13.78Zm22.16-18.89-6.7,6.73L230.26,209l6.72-6.73Zm8.7,22.16,13.81,13.78,6.69-6.73L238.6,203.91Zm-17-13.81-6.73,6.73,13.81,13.78,6.69-6.7Zm10-10,13.76,13.77,6.73-6.73-13.81-13.77Zm38.84-11.28,6.7-6.73L256.6,155.09l-6.72,6.69Zm-15.42-12.15-6.73,6.69,13.77,13.81,6.73-6.73Zm0-3.28,6.69-6.73-13.78-13.77-6.72,6.69Zm.35,33.75,13.77,13.81,6.73-6.73L255.3,187.22ZM247,195.57l-6.7,6.69L254,216.07l6.73-6.73Zm40.5-9.66-6.73,6.73,13.75,13.74,6.72-6.69ZM292.85,208l-13.77-13.78L272.39,201l13.74,13.77Zm-7-23.75L272,170.48l-6.73,6.73L279.08,191Zm-8.35,8.35-13.78-13.77L257,185.56l13.77,13.81Zm-6.73,10-6.69,6.7,13.74,13.77,6.72-6.72Zm-82.25-52.06,6.73-6.73-13.77-13.77-6.73,6.69Zm89.3,75.81-6.69,6.69,13.77,13.81,6.72-6.73Zm-8.35,5.07,6.72-6.73L262.38,211l-6.72,6.69Zm13.77,17-13.77-13.77-6.73,6.73,13.81,13.77Zm3.28,0,13.81,13.81,6.69-6.73-13.77-13.77ZM254,219.34l-6.72,6.7,13.77,13.77,6.73-6.73Zm25.4,5.39,13.78,13.81,6.72-6.73L286.13,218Zm-25.08,25.09,13.81,13.77,6.69-6.73-13.77-13.77Zm-1.62-1.66,6.69-6.69-13.73-13.78L239,234.42ZM242.2,262,256,275.78l6.73-6.73-13.81-13.77Zm15.39,15.43,13.81,13.81,6.69-6.73-13.77-13.77Zm-10,6.73,6.73-6.73-13.81-13.78-6.69,6.7Zm8.35-5.08-6.73,6.7,13.81,13.81,6.69-6.73Zm13.81-13.8L283.55,279l6.73-6.73-13.77-13.77Zm11.13,19.23a1.12,1.12,0,0,1-.35.81l-50.13,50.13a1.21,1.21,0,0,1-1.62,0L120.88,227.48a1.12,1.12,0,0,1-.35-.81,1.23,1.23,0,0,1,.35-.85L171,175.7a1.06,1.06,0,0,1,.81-.32,1.07,1.07,0,0,1,.81.32l107.93,108A1.12,1.12,0,0,1,280.91,284.48Zm11-13.81,6.69-6.73-13.77-13.77-6.73,6.69ZM233.5,239.88l-6.69,6.69,13.73,13.78,6.73-6.73Zm-1.62-1.65-13.81-13.78-6.69,6.7L225.15,245Zm5.45-5.46L244,226l-13.77-13.78L223.53,219ZM193,246.22l6.73-6.69-13.81-13.81-6.69,6.73Zm15.08-15.07-13.81-13.78-6.69,6.73,13.77,13.77Zm-13.46,16.73,13.81,13.77,6.69-6.73-13.77-13.77Zm8.39-8.35L216.8,253.3l6.73-6.73L209.72,232.8Zm-2.93,33.75L193.38,280l13.77,13.74,6.69-6.69Zm-1.65-1.62-13.78-13.81L178,264.58l13.81,13.77Zm10-6.73-6.73,6.73L215.5,285.4l6.69-6.7Zm-1.65-1.62L193,249.5l-6.73,6.73L200.1,270Zm17,13.74,6.73-6.73L216.8,256.58l-6.73,6.73Zm8.35-5.08-6.72,6.73,13.81,13.78,6.69-6.73Zm-13.77-17.05,13.77,13.78,6.73-6.73-13.77-13.74Zm12.5,45.91,6.7-6.73-13.78-13.78-6.72,6.73Zm-46.25-46.26,6.7-6.69-13.78-13.81-6.72,6.73Zm37.87,54.61,6.73-6.7L215.5,288.67l-6.73,6.73Zm16.74-13.43-6.73,6.73,13.77,13.77,6.73-6.73Zm-8.36,8.35-6.73,6.73L238,324.6l6.73-6.73Zm-10,6.73L207.15,297l-6.73,6.73,13.78,13.77Zm97.33-94.09-6.69,6.73,13.77,13.77,6.73-6.69ZM254.7,307.91l6.7-6.73L247.62,287.4l-6.72,6.7ZM185,288.35l13.74,13.78,6.73-6.73-13.74-13.77Zm37.51,24.1-6.69,6.73L229.62,333l6.73-6.69Zm85.74-89-13.8-13.81-6.7,6.73,13.78,13.77Zm-6.72,10-6.7,6.73,13.77,13.78,6.73-6.7Zm22.15,5.47L309.9,225.09l-6.69,6.72L317,245.59ZM185.94,222.44l6.73-6.69L178.9,201.94l-6.73,6.73ZM60,63.64a1.19,1.19,0,0,1,.85.35L168.79,171.93a1.13,1.13,0,0,1,.32.81,1.15,1.15,0,0,1-.32.81l-50.13,50.13a1.09,1.09,0,0,1-.81.32,1.16,1.16,0,0,1-.84-.32L9.08,115.74a1.06,1.06,0,0,1-.32-.81,1.16,1.16,0,0,1,.32-.85L59.2,64A1.11,1.11,0,0,1,60,63.64Zm47.24-44.42L121,33l6.73-6.73L114,12.49ZM60,66.42l-6.69,6.73L67.09,86.92l6.73-6.69ZM119.4,34.61,105.63,20.84,98.9,27.57l13.78,13.77ZM97.25,29.19l-6.69,6.73,13.77,13.77L111.05,43ZM73.82,52.61,87.63,66.39l6.69-6.7L80.55,45.88ZM96,61.32,89.25,68l13.81,13.78,6.69-6.7ZM86,68,72.2,54.27,65.47,61,79.28,74.77Zm1.66,1.62L80.9,76.39,94.71,90.17l6.69-6.7ZM82.2,44.27,96,58l6.73-6.7L88.9,37.54Zm37.56,20.85,6.72-6.73-13.8-13.77L106,51.34Zm-1.66,1.65L104.33,53,97.6,59.69l13.81,13.78ZM113,75.12l13.8,13.78,6.7-6.73L119.76,68.39Zm8-38.85L114.33,43,128.1,56.77,134.83,50Zm8.74,22.12L143.53,72.2l6.73-6.73L136.45,51.7Zm15.39,15.43L159,87.63l6.69-6.73L151.88,67.13Zm-8.7-25.4,6.73-6.73L129.37,27.92l-6.69,6.69Zm8.35-5.07L138.11,50l13.77,13.81,6.73-6.73Zm-16.7,16.7-6.72,6.72,13.81,13.78,6.69-6.73ZM174,72.55l-13.8-13.81-6.7,6.73,13.78,13.78Zm-13.45,16.7L174.35,103l6.73-6.73L167.31,82.52Zm8.35-8.35L182.7,94.67l6.73-6.73L175.66,74.17Zm3.77,23.74L159,90.9l-6.73,6.7L166,111.37Zm-22.09-5.39-6.73,6.7,13.78,13.77,6.69-6.73Zm-8.34,5.08L149,97.6,135.19,83.82l-6.73,6.73Zm-5.46-22.16L150.61,96l6.7-6.73L143.53,75.48Zm3.8,23.78L126.83,92.17l-6.72,6.73,13.77,13.78Zm2,32.13,13.78,13.77,6.72-6.73-13.81-13.77Zm-1.65-1.66,6.72-6.69L133.88,116l-6.69,6.73Zm8.34-8.35,6.73-6.73L142.27,107.6l-6.73,6.73Zm10-6.73,13.77,13.81,6.73-6.73L166,114.65ZM157.66,123l-6.73,6.73L164.7,143.5l6.73-6.73Zm23.78,3.8,6.69-6.73L174.35,106.3,167.62,113Zm-8.39,11.63-6.69,6.69,13.77,13.81,6.73-6.73Zm-61.29-31.18L125.53,121l6.73-6.69-13.77-13.81Zm-8.7-22.16-6.73,6.73,13.77,13.77,6.73-6.69Zm22.12,5.46L111.41,76.74l-6.73,6.73,13.81,13.78ZM84.14,104,98,117.78l6.69-6.73L90.87,97.28Zm5.11-8.38L75.44,81.85l-6.69,6.73,13.77,13.77ZM80.87,104,67.09,90.2l-6.72,6.73,13.8,13.77Zm-8,38.82,6.73-6.69L65.82,122.33l-6.72,6.73Zm8.35-5.07-6.7,6.73L88.3,158.26,95,151.57Zm0-3.28,6.72-6.69L74.17,114l-6.73,6.73Zm8.38-5.07-6.73,6.73,13.77,13.77,6.73-6.73Zm1.62-1.62L105,141.56l6.72-6.73L98,121.06Zm5.08-8.38L82.52,105.63l-6.73,6.73L89.6,126.13Zm10-6.7-6.73,6.7,13.81,13.8,6.69-6.72Zm15.43,15.43L115,134.83l13.77,13.78,6.69-6.73Zm-15.08,15L120.42,157l6.7-6.73-13.74-13.74Zm-3,30.47,6.73-6.69L96.64,153.19,90,159.92Zm8.35-5.07-6.69,6.73,13.77,13.77,6.73-6.69Zm8.38-8.35L113.69,167l13.78,13.77L134.2,174ZM112,165.3l6.73-6.69L105,144.84l-6.7,6.73ZM80,166.61l6.73-6.69L72.87,146.11l-6.69,6.73Zm8.35-5.07-6.7,6.72L95.34,182l6.73-6.69ZM80,169.89l-6.73,6.73L87,190.39l6.72-6.73Zm-1.62-1.63L64.52,154.49l-6.69,6.69L71.6,175Zm17,17L88.61,192l13.82,13.77,6.69-6.69Zm15.43,12.15,6.73-6.69-13.81-13.81L97,183.66Zm8.35-5.07-6.73,6.73,13.81,13.77,6.7-6.69Zm-8.35,8.35L104,207.44l13.81,13.77,6.7-6.69Zm48.82-21.24,6.73-6.73L152.55,159l-6.73,6.7Zm5.11-32.7L158,153.5l13.77,13.78,6.73-6.73Zm-13.81,10.54-13.77-13.77-6.73,6.69L144.2,164Zm-22.12-5.43-6.72,6.73,13.77,13.78,6.72-6.73Zm8.7,22.13,13.78,13.81,6.72-6.73L144.2,167.31Zm-2.92,30.5,6.73-6.72L127.47,184l-6.69,6.73Zm8.35-8.34,6.73-6.73-13.81-13.78-6.7,6.73Zm34.34,4.15-13.77-13.81-6.73,6.73L170.51,207Zm-30.5,2.93-6.7,6.69,13.78,13.81,6.73-6.73Zm15.43,12.11,6.72-6.69-13.77-13.81-6.73,6.73Zm2.92-30.47,13.81,13.78,6.69-6.7-13.77-13.81Zm-108-88L43.31,83.16l-6.72,6.69,13.8,13.81Zm8.38-8.35L51.66,74.77,45,81.5,58.74,95.27Zm-6.73,10L52,105.28l13.81,13.77,6.7-6.69Zm-32.12,1.3-6.73,6.7,13.78,13.81,6.72-6.73ZM35,91.5l-6.73,6.7L42.05,112l6.69-6.73Zm-1.3,32.13-6.7,6.7,13.77,13.8,6.73-6.73Zm-8.36,5.07L32,122,18.27,108.2l-6.73,6.73Zm30.51.36L42.05,115.28,35.32,122l13.77,13.81ZM43.67,113.63l13.77,13.81,6.73-6.73L50.39,106.93Zm13.77,17.08-6.69,6.69,13.77,13.81,6.73-6.72ZM160.9,247.53l6.69-6.73L153.82,227l-6.73,6.7ZM49.09,139.06l-6.69,6.69,13.77,13.81,6.73-6.72ZM176,232.45l-13.81-13.81-6.7,6.73,13.78,13.77Zm-6.73,10-6.73,6.73,13.81,13.77,6.69-6.69ZM163.82,217l13.77,13.77,6.73-6.69-13.81-13.81Zm-18.35,18.35-6.73,6.7,13.81,13.81,6.69-6.73Zm-1.66-1.65L130,219.94l-6.73,6.73,13.81,13.78Zm1.66-1.62,6.73-6.73-13.81-13.78-6.7,6.7Zm24.13,40.82,13.77,13.78,6.73-6.7-13.77-13.8Zm5.07-8.34L160.9,250.8l-6.73,6.7L168,271.31Z"/><path class="cls-20" d="M184.32,96.29l6.73-6.72,13.78,13.81-6.7,6.69Zm27.59,30.86-6.7,6.7L191.4,120.07l6.73-6.72Zm5.49,5.43,13.78,13.77-6.7,6.73-13.81-13.77Zm7.08,23.78,13.77,13.77-6.73,6.73-13.77-13.77Zm-38.85,8,6.72-6.72,13.78,13.8-6.73,6.7Zm15.07-15.07,13.77,13.81-6.72,6.69L194,156Zm-1.3,32.12,13.81,13.81-6.73,6.7L192.7,188.13Zm23.78,7.08L237,202.26,230.26,209l-13.78-13.78Zm8.7,22.16,6.72-6.73,13.78,13.78-6.69,6.73Zm31.8-35-13.8-13.81,6.72-6.69,13.78,13.77Zm-15.42-12.15L262,177.21l-6.73,6.73-13.77-13.81Zm.35,30.47,6.69-6.69L269.11,201l-6.73,6.73ZM292.85,208l-6.72,6.72L272.39,201l6.69-6.73Zm-7-23.75-6.73,6.7L265.3,177.21l6.73-6.73Zm-97.33-33.71-13.77-13.81,6.73-6.69,13.77,13.77Zm81,80.88-13.77-13.77,6.72-6.69,13.77,13.73Zm-15.08,18.36,6.73-6.73,13.77,13.77-6.69,6.73Zm3.24,27.58,6.73-6.69,13.77,13.77-6.69,6.73Zm-10,6.73-13.77-13.81,6.69-6.7,13.81,13.78Zm44.32-13.46-13.81-13.81,6.73-6.69,13.77,13.77Zm-54.61-37.9L223.53,219l6.73-6.73L244,226Zm-5.45,5.46L225.15,245l-13.77-13.8,6.69-6.7Zm-37.24,9.65,6.73-6.73,13.77,13.77-6.69,6.73Zm13.81,17.05,13.74,13.77-6.69,6.7-13.78-13.74Zm10-10,6.73-6.69L238.92,262l-6.73,6.73Zm4.12,54.26L208.77,295.4l6.73-6.73,13.77,13.81Zm0,3.27,13.81,13.81L229.62,333l-13.77-13.77ZM185,288.35l6.73-6.72L205.5,295.4l-6.73,6.73Zm69.67,19.56L240.9,294.1l6.72-6.7,13.78,13.78Zm63.55-91.17,13.81,13.81-6.73,6.69-13.77-13.77Zm-16.69,16.69,13.8,13.81-6.73,6.7-13.77-13.78Zm-115.62-11-13.77-13.77,6.73-6.73,13.77,13.81ZM119.4,34.61l-6.72,6.73L98.9,27.57l6.73-6.73ZM86,68l-6.69,6.73L65.47,61l6.73-6.69ZM82.2,44.27l6.7-6.73,13.81,13.8L96,58Zm38.82-8L134.83,50l-6.73,6.73L114.33,43Zm15.43,12.15L122.68,34.61l6.69-6.69,13.81,13.77ZM128.1,60.05l13.78,13.77-6.69,6.73L121.38,66.77ZM174,72.55l-6.72,6.7L153.53,65.47l6.7-6.73Zm-13.45,16.7,6.73-6.73,13.77,13.77L174.35,103Zm-10,10L164.35,113l-6.69,6.73L143.88,106Zm-10,6.7-6.73,6.73L120.11,98.9l6.72-6.73Zm-3.8-23.78,6.72-6.69,13.78,13.77L150.61,96Zm44.63,44.63L167.62,113l6.73-6.69,13.78,13.77ZM157.66,123l13.77,13.77-6.73,6.73-13.77-13.77ZM89.25,95.63l-6.73,6.72L68.75,88.58l6.69-6.73ZM84.14,104l6.73-6.73,13.77,13.77L98,117.78Zm41-13.46-6.69,6.7L104.68,83.47l6.73-6.73Zm-22.12-5.46L116.83,98.9l-6.73,6.69L96.33,91.82ZM81.22,134.48,67.44,120.71,74.17,114l13.77,13.81Zm0,3.28L95,151.57l-6.72,6.69L74.52,144.49Zm10-10L98,121.06l13.77,13.77L105,141.56Zm30.51.35,13.73,13.74-6.69,6.73L115,134.83ZM112,168.58l13.81,13.81-6.73,6.69-13.77-13.77Zm0-3.28L98.3,151.57l6.7-6.73,13.77,13.77ZM88.3,161.54l13.77,13.77L95.34,182,81.6,168.26Zm-10,6.72L71.6,175,57.83,161.18l6.69-6.69Zm17,17,13.78,13.81-6.69,6.69L88.61,192Zm69.36-38.51,13.81,13.78-6.73,6.73L158,153.5Zm-5.11,32.7-13.77-13.81,6.73-6.7,13.77,13.78Zm-30.82-27.59,13.77,13.78-6.72,6.73-13.77-13.78Zm14.13,44.29-13.78-13.78,6.7-6.73,13.81,13.78Zm-8.35,8.34-13.77-13.77,6.69-6.73,13.81,13.78Zm30.54-19.62,6.73-6.73L185.59,192l-6.69,6.7Zm-2.92,30.47-13.78-13.77,6.73-6.73,13.77,13.81ZM65.47,88.58l-6.73,6.69L45,81.5l6.69-6.73ZM35,91.5l13.77,13.78L42.05,112,28.24,98.2Zm-9.66,37.2L11.54,114.93l6.73-6.73L32,122Zm30.51.36-6.73,6.72L35.32,122l6.73-6.69ZM169.25,242.42,183,256.23l-6.69,6.69-13.81-13.77Zm6.73-10-6.73,6.69-13.78-13.77,6.7-6.73Zm-30.51,2.92,13.77,13.78-6.69,6.73-13.81-13.81Zm0-3.27-13.78-13.81,6.7-6.7,13.81,13.78Zm29.2,32.48L168,271.31,154.17,257.5l6.73-6.7Z"/><path class="cls-21" d="M196.48,111.72l-6.7,6.73L176,104.64,182.7,98Zm7.08,23.78-6.73,6.73-13.78-13.81,6.73-6.69Zm10-10-13.81-13.78,6.73-6.72,13.77,13.8Zm19.27,19.23L219,130.93l6.73-6.7L239.52,138Zm7.08,27.06,13.77,13.77L247,192.29l-13.78-13.81ZM232.83,148l13.77,13.77-6.69,6.73L226.1,154.7Zm-35.05,31.77-6.73,6.73L177.28,172.7,184,166Zm10-6.72,13.8,13.81-6.72,6.69-13.77-13.78ZM201,207.37l-6.73,6.73-13.77-13.78,6.73-6.73Zm23.82-20.5,6.68-6.73,13.81,13.77-6.73,6.73Zm62.62-1,13.74,13.78-6.72,6.69-13.75-13.74Zm-10,6.73-6.73,6.73L257,185.56l6.72-6.69Zm-6.73,10,13.77,13.75-6.72,6.72L264,209.34Zm7,23.75,13.8,13.77-6.72,6.73-13.77-13.81Zm5.42,22.12-6.69,6.73L262.7,241.47l6.73-6.73Zm-30.47-.35L239,234.42l6.73-6.73,13.73,13.78ZM256,279.05l13.77,13.78-6.69,6.73-13.81-13.81Zm13.81-13.8,6.73-6.73,13.77,13.77L283.55,279ZM233.5,239.88l13.77,13.74-6.73,6.73-13.73-13.78Zm-25.4-8.73-6.73,6.72L187.6,224.1l6.69-6.73ZM193,246.22l-13.77-13.77,6.69-6.73,13.81,13.81Zm5.43,25.44-6.69,6.69L178,264.58l6.72-6.73Zm33.74.31L246,285.75l-6.69,6.73L225.47,278.7Zm-47.52-17.4-13.8-13.77,6.72-6.73,13.78,13.81Zm46.25,46.26-13.8-13.78,6.72-6.73,13.78,13.78Zm0,3.27,13.78,13.77L238,324.6l-13.78-13.77Zm-10,6.73-6.72,6.69-13.78-13.77,6.73-6.73Zm87.36-87.36-6.72,6.69-13.78-13.77,6.7-6.73ZM60,66.42,73.82,80.23l-6.73,6.69L53.32,73.15Zm47.24-47.2L114,12.49l13.77,13.77L121,33ZM73.82,52.61l6.73-6.73L94.32,59.69l-6.69,6.7Zm13.81,17L101.4,83.47l-6.69,6.7L80.9,76.39Zm32.13-4.54L106,51.34l6.7-6.72,13.8,13.77Zm-6.73,10,6.73-6.73,13.77,13.78-6.7,6.73Zm16.73-16.73,6.69-6.69,13.81,13.77-6.73,6.73Zm15-15,13.81,13.77-6.73,6.73L138.11,50Zm-3.87,93.07-13.74-13.74,6.69-6.73,13.77,13.78Zm18.35-15.08,6.73-6.69,13.77,13.77-6.73,6.73Zm-10,6.73-13.73-13.74,6.73-6.73L156,121.34Zm23.78,10.36,13.81,13.77-6.73,6.73-13.77-13.81Zm-76.75-19-6.7,6.72L75.79,112.36l6.73-6.73Zm10-6.7,13.77,13.78-6.69,6.72-13.81-13.8Zm-2.61,60.94L90,159.92l6.69-6.73L110.42,167Zm16.73-13.42L134.2,174l-6.73,6.72L113.69,167ZM80,169.89l13.77,13.77L87,190.39,73.22,176.62Zm39.17,22.47,13.78,13.81-6.7,6.69-13.81-13.77Zm31.77-35.05L144.2,164l-13.81-13.81,6.73-6.69ZM137.47,174l6.73-6.7L158,181.09l-6.72,6.73ZM58.74,98.55l13.78,13.81-6.7,6.69L52,105.28ZM33.67,123.63l13.8,13.77-6.73,6.73L27,130.33Zm23.77,7.08,13.81,13.78-6.73,6.72L50.75,137.4ZM43.67,113.63l6.72-6.7,13.78,13.78-6.73,6.73ZM143.81,233.72l-6.69,6.73-13.81-13.78,6.73-6.73Z"/><path class="cls-22" d="M302.86,201.31l13.77,13.81-6.73,6.69L296.13,208Zm-86.73-39.88-13.8-13.77,6.72-6.73,13.77,13.77Zm13.78,17-6.73,6.73L209.4,171.43l6.73-6.72Zm-34,37.27,6.69-6.73,13.81,13.78-6.73,6.73Zm18.88-18.92,13.77,13.81-6.69,6.7L208.1,203.56Zm33.43-36.67-13.81-13.81,6.72-6.69L255,153.43ZM247,195.57l13.8,13.77L254,216.07l-13.77-13.81Zm39.52,52.94,6.73-6.69L307,255.59l-6.69,6.73Zm-7.05-23.78,6.7-6.69,13.8,13.77-6.72,6.73ZM254,219.34l13.78,13.74-6.73,6.73L247.31,226ZM242.2,262l6.69-6.69,13.81,13.77L256,275.78ZM203,239.53l6.69-6.73,13.81,13.77-6.73,6.73Zm-2.93,33.75,13.74,13.77-6.69,6.69L193.38,280Zm6.7-10L200.1,270l-13.81-13.77L193,249.5Zm17,13.74-13.77-13.74,6.73-6.73,13.77,13.74Zm15.44,18.7,13.77,13.77-6.73,6.73-13.77-13.77Zm84.43-56.85L317,245.59l-13.78-13.78,6.69-6.72ZM97.25,29.19,111.05,43l-6.72,6.69L90.56,35.92ZM96,61.32l13.77,13.8-6.69,6.7L89.25,68Zm22.12,5.45-6.69,6.7L97.6,59.69,104.33,53Zm27.05,7,6.73-6.69L165.65,80.9,159,87.63Zm27.55,30.82L166,111.37,152.23,97.6,159,90.9ZM168.93,80.9l6.73-6.73,13.77,13.77-6.73,6.73Zm-26.66,23.43L128.46,90.55l6.73-6.73L149,97.6Zm.31,33.75,6.69-6.73,13.81,13.77-6.72,6.73Zm-30.82-30.83,6.73-6.73,13.77,13.81L125.53,121ZM80.87,104l-6.7,6.69L60.37,96.93l6.72-6.73Zm-8,38.82L59.1,129.06l6.72-6.73L79.6,136.14ZM89.6,129.41l13.77,13.77-6.73,6.73L82.87,136.14Zm17.05,13.77,6.73-6.69,13.74,13.74-6.7,6.73ZM80,166.61,66.18,152.84l6.69-6.73,13.81,13.81Zm30.82,30.82L97,183.66l6.69-6.73,13.81,13.81Zm0,3.28,13.78,13.81-6.7,6.69L104,207.44Zm36,2.54L160.55,217l-6.73,6.73L140,209.94Zm30.5-2.93-6.73,6.7-13.77-13.78,6.73-6.73ZM57.09,96.93l-6.7,6.73L36.59,89.85l6.72-6.69ZM26.62,99.85l13.77,13.78-6.72,6.73L19.89,106.55Zm22.47,39.21L62.9,152.84l-6.73,6.72L42.4,145.75ZM160.9,247.53l-13.81-13.81,6.73-6.7,13.77,13.78ZM163.82,217l6.69-6.73,13.81,13.81-6.73,6.69Zm5.78,55.9,6.73-6.72L190.1,280l-6.73,6.7Z"/><path class="cls-23" d="M463.2,375.79l-4.33,4.33-10.95-10.95-8.32-1.24L451,356.52l1.24,8.31ZM379,460l-4.34,4.34-8.49-8.49-8.31-1.24,11.41-11.41,1.24,8.31Z"/><polygon class="cls-3" points="374.68 464.32 379.02 459.98 458.87 380.12 463.2 375.79 474.9 364.06 702.24 591.41 590.47 703.19 363.16 475.83 374.68 464.32"/><path class="cls-19" d="M545.28,457.13l13.81,13.81,6.69-6.73L552,450.44Zm-17-13.78-6.73,6.73,13.81,13.78,6.69-6.73Zm0-3.27,6.73-6.73-13.81-13.77-6.69,6.73Zm8.35-5.07-6.73,6.69,13.8,13.81,6.7-6.73ZM544,489.25l13.77,13.81,6.73-6.72-13.77-13.78Zm-10.36-23.77L519.88,451.7l-6.73,6.73L527,472.21Zm-5.07,8.38,13.77,13.77,6.73-6.72-13.77-13.78Zm22.16,5.43,6.69-6.73-13.78-13.78-6.72,6.7ZM527,475.48l-6.73,6.73L534,496l6.73-6.73Zm54.25,4.16-13.78-13.78-6.72,6.7,13.81,13.81Zm-22.12-5.43-6.73,6.7,13.77,13.81,6.73-6.73Zm27.54,8.14a1.16,1.16,0,0,1,.85.32L695.41,590.6a1.12,1.12,0,0,1,.32.81,1.19,1.19,0,0,1-.32.85l-50.13,50.09a1.09,1.09,0,0,1-.81.36,1.12,1.12,0,0,1-.81-.36l-108-107.93a1.07,1.07,0,0,1-.32-.81,1.06,1.06,0,0,1,.32-.81l50.12-50.13A1.07,1.07,0,0,1,586.63,482.35ZM584,479.64a1.07,1.07,0,0,1-.32.81l-50.12,50.13a1.08,1.08,0,0,1-.81.31,1,1,0,0,1-.81-.31L424,422.64a1,1,0,0,1-.31-.81A1.11,1.11,0,0,1,424,421l50.13-50.13a1.06,1.06,0,0,1,.81-.32,1.12,1.12,0,0,1,.84.32l107.93,108A1.06,1.06,0,0,1,584,479.64Zm-4,12.19,13.77,13.81,6.73-6.73-13.81-13.78Zm-105-118.51-6.7,6.73L482,393.82l6.73-6.69Zm20.89,37.59L482,397.1l-6.7,6.73,13.78,13.77Zm-5.11,8.35L504.45,433l6.73-6.69-13.77-13.78Zm-10.32-23.78-13.81-13.81-6.69,6.73,13.77,13.77Zm-6.73,10-6.73,6.73L480.71,426l6.7-6.69Zm10-10,13.78,13.77,6.72-6.72-13.81-13.78Zm22.12,8.7-6.69,6.73,13.74,13.74,6.73-6.73ZM433.16,415.1l-6.73,6.73,13.77,13.78,6.73-6.73ZM421,424.47a1.12,1.12,0,0,1,.81.36l108,107.93a1.07,1.07,0,0,1,.32.81,1.06,1.06,0,0,1-.32.81l-50.12,50.13a1.11,1.11,0,0,1-.81.35,1.19,1.19,0,0,1-.85-.35L370,476.57a1,1,0,0,1-.31-.81A1.08,1.08,0,0,1,370,475l50.13-50.12A1.09,1.09,0,0,1,421,424.47Zm36-5.56,6.7-6.73-13.78-13.77-6.73,6.69Zm1.62,1.62,13.81,13.77,6.69-6.69L465.28,413.8Zm-3.28,0-13.76-13.78-6.73,6.7,13.81,13.81Zm-3.76-23.78,13.77,13.77,6.73-6.69L458.2,390ZM455.63,451l6.73-6.73-13.77-13.77-6.73,6.69Zm1.66,1.63L471,466.43l6.73-6.73L464,446Zm6.69-10,6.73-6.72-13.78-13.78-6.73,6.7Zm-35.93,5.11,6.69-6.72L421,427.29,414.24,434Zm8.35-5.11-6.73,6.73,13.81,13.78,6.69-6.7Zm-23.78-7-6.73,6.69,13.81,13.81,6.69-6.73Zm8.7,22.12,13.81,13.78,6.69-6.7-13.77-13.77Zm7.08,23.78,13.73,13.78,6.73-6.73-13.73-13.78Zm5.07-8.35L419.7,459.42,413,466.11l13.76,13.81Zm-13.42,16.7,13.74,13.77,6.73-6.72L426.74,483.2Zm5.07-8.35-13.77-13.77-6.73,6.69,13.78,13.81Zm40.44-9.65-13.74-13.77-6.73,6.72,13.78,13.74Zm1.66,1.62-6.73,6.73L474.3,494l6.7-6.69Zm-23.74-7.05-6.73,6.73L450.52,487l6.69-6.73Zm68-9.68,6.69-6.7-13.77-13.81L497.72,443Zm-52.66,25.08-6.72,6.73,13.76,13.77,6.73-6.69Zm53.93-53.94-6.73,6.73,13.81,13.78,6.69-6.73ZM474,436l13.77,13.77,6.7-6.73-13.74-13.77Zm22.13,8.66-6.73,6.73,13.8,13.78,6.7-6.7Zm0-3.27,6.69-6.7-13.74-13.77-6.73,6.73ZM487.75,453,481,459.7l13.77,13.81,6.73-6.73Zm-1.65-1.66-13.74-13.77-6.73,6.72,13.78,13.78Zm.35,30.51,6.73-6.73-13.77-13.77-6.73,6.69Zm8.35-5.07-6.69,6.69,13.77,13.81,6.73-6.73Zm17.09,13.77,13.77,13.77,6.73-6.69-13.81-13.81Zm5.07-8.35L503.18,468.4l-6.72,6.73,13.77,13.78Zm8.35-8.35-13.78-13.81-6.72,6.73,13.77,13.77Zm-6.38,40.48,13.81,13.77,6.69-6.69-13.77-13.81Zm-12.15,12.19,13.77,13.77,6.73-6.73L513.47,519.8ZM524,506l-13.81-13.81-6.69,6.73,13.77,13.77Zm-18.92,18.88,6.73-6.73-13.77-13.77-6.73,6.73Zm-15.43-15.43,6.73-6.69-13.77-13.81-6.73,6.73ZM474.3,497.29,467.57,504l13.78,13.77,6.72-6.69Zm5.43,22.15-13.82-13.8-6.69,6.72L473,526.14Zm-5.08,8.35,13.77,13.78,6.73-6.69-13.8-13.81Zm8.35-8.35,13.77,13.78,6.73-6.73-13.81-13.77Zm-4.58,32.13L464.64,537.8l-6.72,6.69,13.81,13.81Zm8.38-8.35L473,529.41l-6.7,6.73,13.78,13.78Zm3.28,0L503.85,557l6.73-6.73L496.77,536.5Zm-10,10-6.73,6.73,13.8,13.78,6.7-6.7Zm1.62-1.62,13.8,13.78,6.69-6.7-13.77-13.81Zm42.65-4.15-6.72,6.73,13.8,13.77,6.69-6.73Zm-15.08,15.07,13.78,13.78,6.73-6.7L516,555.77Zm9.66-20.57-13.81-13.77-6.69,6.73,13.77,13.77Zm-78.06-14.48,6.73-6.73-13.81-13.77-6.69,6.69Zm16.69-16.69,6.73-6.73-13.77-13.78-6.73,6.7Zm-15,18.31,13.78,13.81,6.73-6.73-13.81-13.77Zm6.7-10,6.73-6.73-13.82-13.77-6.68,6.7Zm1.66,1.62,13.76,13.81,6.73-6.73L457.56,514Zm-18.71-15.42L418.4,491.55l-6.7,6.69L425.44,512Zm7.08,23.77-13.81-13.77-6.7,6.73,13.78,13.77Zm-15.43-15.43-13.77-13.74-6.73,6.73,13.77,13.74ZM448,551.22l6.69-6.73-13.77-13.77-6.73,6.69Zm1.62,1.62,13.81,13.81,6.69-6.73L456.3,546.15ZM508,594.62l13.78,13.77,6.72-6.69L514.7,587.89Zm5.07-8.35-13.8-13.77-6.7,6.69L506.36,593Zm3.28,0,13.77,13.78,6.73-6.7-13.81-13.81Zm5.07-8.35-13.77-13.81-6.73,6.73,13.77,13.78Zm-40,9.62a1.06,1.06,0,0,1,.32-.81l50.12-50.13a1.08,1.08,0,0,1,.81-.31,1,1,0,0,1,.81.31l108,107.94a1.11,1.11,0,0,1,.31.84,1,1,0,0,1-.31.81l-50.13,50.13a1.14,1.14,0,0,1-.84.32,1.06,1.06,0,0,1-.81-.32L481.77,588.39A1.16,1.16,0,0,1,481.45,587.54Zm4.05-12.19-13.77-13.77L465,568.27l13.77,13.81Zm-1.27,12.19L498,601.35l6.73-6.73-13.81-13.77Zm30.83,30.86,13.77,13.77,6.73-6.72-13.77-13.78Zm5.1-8.35-13.8-13.77-6.7,6.69,13.77,13.81ZM617.49,516l-6.73,6.73,13.78,13.77,6.73-6.73Zm-22.12-8.7,13.77,13.81,6.73-6.73-13.81-13.77Zm5.43,22.15,6.69-6.72-13.78-13.78-6.73,6.7Zm-8.71-22.15-13.81-13.78-6.69,6.7L585.37,514Zm-8,38.85,6.69-6.73L577,525.61l-6.73,6.73Zm22.08,8.67L592.45,541l-6.73,6.69,13.77,13.78Zm-5.07,8.38,13.77,13.78,6.73-6.73-13.77-13.78Zm-7-23.78,13.77,13.78,6.69-6.73L600.8,532.69Zm3.77,23.78L584.1,549.39l-6.73,6.73,13.74,13.74Zm-5.39-25.4,6.69-6.72-13.77-13.78-6.73,6.7Zm33.74.32L640,551.86l6.73-6.7-13.82-13.81Zm-10,6.73,6.73-6.73-13.78-13.74-6.73,6.7Zm8.35-5.07-6.73,6.69,13.8,13.81,6.7-6.73ZM640,555.13l-6.73,6.73L647,575.63l6.7-6.69Zm-23.78-7-6.73,6.7,13.81,13.81,6.69-6.73Zm-53-39.52L577,522.33l6.69-6.72-13.77-13.78Zm-8.35,8.35,13.81,13.77,6.69-6.72-13.77-13.78Zm-13.77,2.85,6.73-6.73L534,499.26,527.32,506Zm8.35-8.35,6.73-6.72-13.82-13.78-6.69,6.73Zm-2.93,13.85L560.32,539l6.69-6.69-13.77-13.81Zm1.62,29.24-6.73,6.69L555.21,575l6.69-6.73ZM532.7,539.07,526,545.8l13.81,13.77,6.7-6.73Zm19.24,8.31,6.72-6.69-13.77-13.81-6.73,6.73Zm15.42,15.43,6.73-6.69-13.77-13.81L553.59,549Zm1.66,1.65,13.74,13.75,6.73-6.7-13.78-13.77Zm6.69-10,6.73-6.73L568.67,534l-6.73,6.73ZM572.23,592,586,605.82l6.69-6.72L579,585.32Zm-15.4-15.39,13.78,13.77,6.69-6.72-13.74-13.74Zm5.43,22.12L569,592l-13.74-13.74-6.73,6.7Zm-29.21-29.17,13.78,13.78,6.73-6.73-13.78-13.78ZM545.21,585l-13.78-13.78-6.73,6.73,13.78,13.78Zm-5.08,8.38,13.75,13.74,6.72-6.69-13.77-13.78Zm12.12,15.4L538.48,595l-6.7,6.73,13.74,13.74Zm-5.07,8.35L561,630.87l6.73-6.69-13.8-13.81Zm-10,10-6.7,6.73,13.78,13.78,6.69-6.7Zm6.73-10-13.78-13.78-6.69,6.73,13.74,13.74Zm-5.08,8.35,13.77,13.77,6.73-6.69-13.81-13.81Zm16.7-16.7,13.77,13.77,6.73-6.73L562.26,602ZM571,624.18,584.73,638l6.73-6.73-13.81-13.77Zm-7.08-23.78,13.77,13.77,6.73-6.73-13.77-13.77Zm-1.27,32.13,13.77,13.77,6.73-6.73L569.3,625.8ZM632,594l13.77,13.81,6.73-6.72-13.81-13.78Zm-1.66-1.61,6.73-6.73-13.77-13.78-6.73,6.7Zm-5.42-22.16L638.66,584l6.73-6.73-13.78-13.77Zm-18.36,18.35-6.69,6.73,13.78,13.78,6.73-6.73Zm-8.34,5.08,6.73-6.73-13.81-13.78-6.7,6.73Zm30.5.34-13.81-13.77-6.69,6.7L622,600.71Zm-22.16-8.69,6.73-6.73-13.77-13.78-6.73,6.73Zm-12.14,15.46-6.73,6.69,13.77,13.81,6.72-6.73Zm15.42,15.39-6.73,6.73,13.78,13.78,6.72-6.7ZM593.08,629.6l6.73-6.73L586,609.1l-6.73,6.69Zm8.35-5.07-6.69,6.69L608.51,645l6.73-6.73Zm29.23,1.58,13.81,13.81,6.69-6.72-13.77-13.78Zm-15.39-15.43L629,624.49l6.73-6.73L622,604Zm22.12,5.46,6.73-6.72-13.81-13.78-6.69,6.7ZM397.54,450.68l13.81,13.81,6.69-6.73L404.27,444Zm-8.34,8.38L403,472.84l6.73-6.73-13.78-13.77Zm-16.7,16.7,13.77,13.78,6.73-6.7L379.19,469Zm23.77,7.08,13.78,13.78,6.72-6.73L403,476.12Zm5.08-8.38-13.78-13.77-6.73,6.73,13.78,13.77Zm-6.73,10-6.69,6.72L401.7,505l6.73-6.73ZM632.29,652.08l6.73-6.7L625.2,631.57l-6.69,6.73Zm-10,10-13.77-13.77L601.78,655l13.81,13.81Zm8.38-8.35-13.8-13.81-6.69,6.73,13.76,13.78Zm-37.23,9.62,13.81,13.81,6.7-6.73-13.78-13.78Zm13.46-16.7-13.81-13.77-6.69,6.69,13.77,13.81Zm-22.16-5.42L578,648l13.81,13.78,6.7-6.73Zm20.86,37.55L591.81,665l-6.72,6.73,13.8,13.78Zm-8.36,8.35-13.77-13.77-6.73,6.72,13.78,13.78Zm-13.77-17,6.7-6.73-13.78-13.77-6.73,6.72Zm-22.15-5.43,13.8,13.78,6.7-6.7L568,657.92Zm5.07-8.35L552.6,642.5l-6.72,6.72L559.69,663Zm8.35-8.35L561,634.15l-6.73,6.72L568,654.65Zm66.86-94.44,13.8,13.77,6.7-6.69-13.78-13.81Zm44.63,44.63,6.72-6.73-13.77-13.77-6.73,6.73ZM677.52,576l-13.78-13.81L657,568.94l13.81,13.77Zm-37.2,9.62,13.77,13.77,6.73-6.69L647,578.91Zm22.12,5.42,6.73-6.69-13.78-13.81-6.72,6.73Zm-15,18.36,13.77,13.77,6.73-6.69-13.81-13.81Zm12.15,15.43-13.81-13.78-6.69,6.69,13.77,13.81Zm16.7-16.7-13.81-13.81-6.69,6.73,13.77,13.77Zm8.35-8.35L670.82,586l-6.72,6.73,13.77,13.77Z"/><path class="cls-22" d="M528.23,443.35,542,457.13l-6.69,6.73L521.5,450.08Zm0-3.27-13.77-13.77,6.69-6.73L535,433.35ZM544,489.25l6.73-6.69,13.77,13.78-6.73,6.72Zm-15.43-15.39,6.73-6.73,13.77,13.78-6.73,6.72Zm52.63,5.78-6.69,6.73-13.81-13.81,6.72-6.7ZM474.9,373.32l13.81,13.81L482,393.82,468.2,380.05Zm5.46,22.16-6.73,6.69L459.86,388.4l6.69-6.73Zm25.39,8.7,13.78,13.74-6.73,6.73-13.74-13.74Zm-47.2,16.35,6.73-6.73,13.77,13.81-6.69,6.69Zm-3.28,0-6.68,6.73-13.81-13.81,6.73-6.7Zm.36,30.5-13.77-13.81,6.73-6.69,13.77,13.77Zm-27.58-3.24L414.24,434l6.73-6.69,13.77,13.78Zm.35,33.75,6.73-6.73,13.73,13.78-6.73,6.73Zm-7.08-23.78,6.73-6.69,13.77,13.77-6.69,6.7Zm44.24,14.13-6.69,6.69-13.78-13.74,6.73-6.72Zm-6.69,10,13.77,13.81-6.73,6.69-13.76-13.77Zm52.66-25.08L497.72,443l6.73-6.73,13.77,13.81Zm-15.42-15.43-13.78-13.74,6.73-6.73,13.74,13.77ZM487.75,453l13.78,13.77-6.73,6.73L481,459.7Zm7.05,23.78,13.81,13.77-6.73,6.73-13.77-13.81Zm30.51-2.93-6.73,6.69-13.77-13.77,6.72-6.73ZM524,506l-6.73,6.69-13.77-13.77,6.69-6.73Zm-18.92,18.88L491.35,511.1l6.73-6.73,13.77,13.77Zm-25.39-5.43-6.73,6.7-13.78-13.78,6.69-6.72Zm-5.43-22.15,13.77,13.81-6.72,6.69L467.57,504Zm15.78,45.93,6.69-6.72,13.81,13.77L503.85,557Zm-3.28,0-6.72,6.7L466.3,536.14l6.7-6.73Zm22.47,19.27,6.73-6.72,13.78,13.8-6.73,6.7Zm-66.75-33.43,6.7-6.69L463,536.14l-6.73,6.73Zm6.7-10-13.77-13.8,6.68-6.7L456,512.36Zm-17.05-13.8L425.44,512,411.7,498.24l6.7-6.69Zm7.08,23.77-6.73,6.73L418.74,522l6.7-6.73Zm10.32,23.78,6.73-6.69,13.77,13.77-6.69,6.73Zm66.79,33.43,6.69-6.73,13.81,13.81-6.73,6.7Zm-3.28,0L506.36,593l-13.78-13.81,6.7-6.69ZM485.5,575.35l-6.73,6.73L465,568.27l6.73-6.69Zm34.66,34.7-6.73,6.73L499.66,603l6.7-6.69Zm80.64-80.64L587,515.61l6.73-6.7,13.78,13.78Zm-5.43-22.15,6.69-6.69,13.81,13.77-6.73,6.73Zm-3.28,0L585.37,514l-13.78-13.81,6.69-6.7Zm2,32.12,6.73-6.69,13.73,13.74-6.69,6.73Zm7,23.78,6.73-6.73,13.77,13.78-6.73,6.73Zm-3.27,0-6.73,6.7-13.74-13.74,6.73-6.73Zm28.35-25.08,6.69-6.73,13.82,13.81-6.73,6.7Zm13.78,17,13.77,13.81-6.7,6.69-13.8-13.77Zm-85.11-38.22,6.73-6.73L575.36,524l-6.69,6.72Zm-13.77,2.85L527.32,506l6.69-6.73L547.82,513Zm-8.39,19.31,13.78,13.77-6.7,6.73L526,545.8Zm34.66,23.74L553.59,549l6.73-6.73,13.77,13.81Zm4.87,29.2,6.72-6.69,13.77,13.78L586,605.82Zm-10,6.73L548.48,585l6.73-6.7L569,592Zm-17-13.77-6.73,6.73L524.7,577.92l6.73-6.73Zm-8,42.09L551,640.87l-6.69,6.7-13.78-13.78Zm6.73-10-6.73,6.69-13.74-13.74,6.69-6.73Zm11.62-8.35,6.73-6.73L576,615.79l-6.73,6.73ZM632,594l6.69-6.69,13.81,13.78-6.73,6.72Zm-69.36,38.55,6.69-6.73,13.81,13.77-6.73,6.73ZM628.69,594,622,600.71l-13.77-13.8,6.69-6.7Zm-30.5-.34-13.78-13.78,6.7-6.73,13.81,13.78Zm8.34-5.08,13.82,13.78-6.73,6.73-13.78-13.78Zm-12.14,12.19,13.76,13.77-6.72,6.73-13.77-13.81Zm7,23.78,13.81,13.77L608.51,645l-13.77-13.81ZM372.5,475.76l6.69-6.73L393,482.84l-6.73,6.7Zm16.7-16.7,6.72-6.72,13.78,13.77L403,472.84Zm8.34-8.38,6.73-6.69L418,457.76l-6.69,6.73Zm224.74,211.4-6.69,6.73L601.78,655l6.73-6.69Zm10-10L618.51,638.3l6.69-6.73L639,645.38Zm-26.7,26.7-6.7,6.73-13.8-13.78,6.72-6.73Zm-20.86-37.55L598.51,655l-6.7,6.73L578,648Zm-23.42,23.42,6.72-6.73,13.78,13.81-6.7,6.7Zm79-79,6.72-6.73,13.78,13.81-6.73,6.69Zm37.2-9.62-6.7,6.69L657,568.94l6.73-6.73Zm-18,48.83-6.73,6.72-13.77-13.81,6.69-6.69ZM684.6,599.8l-6.73,6.69L664.1,592.72l6.72-6.73Zm-8.35,8.35-6.73,6.69-13.77-13.77,6.69-6.73Z"/><path class="cls-21" d="M545.28,457.13l6.73-6.69,13.77,13.77-6.69,6.73Zm-11.63,8.35L527,472.21l-13.81-13.78,6.73-6.73Zm25.44,8.73L572.86,488l-6.73,6.73-13.77-13.81Zm-63.3-63.3-6.73,6.69-13.78-13.77,6.7-6.73Zm-12.16-15.43,6.69-6.73,13.81,13.78-6.72,6.72ZM433.16,415.1l13.77,13.78-6.73,6.73-13.77-13.78Zm23.77,3.81L443.12,405.1l6.73-6.69,13.78,13.77Zm-5.42-22.16L458.2,390,472,403.83l-6.73,6.69ZM436.4,442.68l13.77,13.81-6.69,6.7-13.81-13.78Zm-23.78-7,13.77,13.77-6.69,6.73-13.81-13.81Zm7.43,54.25,6.69-6.69,13.78,13.74-6.73,6.72Zm13.42-16.7-6.73,6.73L413,466.11l6.72-6.69Zm33.75.32L481,487.32,474.3,494l-13.81-13.77Zm45.58-45.59,13.77,13.78-6.69,6.73-13.81-13.78Zm-16.69,16.7,13.77,13.81-6.7,6.7-13.8-13.78Zm-10,6.73-6.69,6.73L465.63,444.3l6.73-6.72Zm.35,30.51-13.77-13.81,6.73-6.69,13.77,13.77Zm25.44,8.7,6.69-6.73,13.81,13.81-6.73,6.69Zm-5.11,36,6.69-6.73,13.81,13.77-6.73,6.73Zm12.15-12.19,6.73-6.73,13.77,13.81-6.69,6.69Zm-40.51,37.23-6.69,6.73-13.81-13.81,6.72-6.69ZM483,519.44l6.69-6.72,13.81,13.77-6.73,6.73Zm-8.35,8.35,6.7-6.72,13.8,13.81-6.73,6.69Zm7.05,23.78,6.72-6.73,13.77,13.81-6.69,6.7ZM448,551.22l-13.81-13.81,6.73-6.69,13.77,13.77ZM508,594.62l6.69-6.73,13.81,13.81-6.72,6.69Zm7,23.78,6.73-6.73,13.77,13.78-6.73,6.72ZM617.49,516l13.78,13.77-6.73,6.73-13.78-13.77Zm-11.31,38.82-6.69,6.73-13.77-13.78,6.73-6.69Zm-13.73-17L578.64,524l6.73-6.7L599.14,531Zm32.09,2,13.77,13.77-6.7,6.73-13.8-13.81Zm-8.35,8.34L630,561.86l-6.69,6.73-13.81-13.81Zm-66.75-36.67-13.78-13.77,6.69-6.73,13.82,13.78Zm-1.31,43.09,13.77,13.77L555.21,575,541.4,561.19Zm20.89,10,6.69-6.72,13.78,13.77-6.73,6.7Zm6.69-10-13.77-13.77,6.73-6.73,13.77,13.77Zm-42.66,15.11,6.73-6.73,13.78,13.78-6.73,6.73Zm7.08,23.78,6.7-6.73L560.6,600.4l-6.72,6.69Zm7,23.75,6.7-6.73,13.8,13.81L561,630.87ZM571,624.18l6.69-6.73,13.81,13.77L584.73,638Zm59.35-31.81-13.77-13.81,6.73-6.7L637,585.64ZM593.08,629.6,579.3,615.79,586,609.1l13.78,13.77Zm16.73-13.46L623.58,630l-6.72,6.7-13.78-13.78Zm27.58,0-13.77-13.8,6.69-6.7,13.81,13.78Zm-22.12-5.46L622,604l13.81,13.77L629,624.49Zm-219-127.84,6.7-6.72,13.8,13.77-6.72,6.73Zm-1.65,1.63,13.81,13.77L401.7,505l-13.77-13.78Zm236,169.26-6.73,6.7-13.76-13.78,6.69-6.73Zm-37.23,9.62,6.73-6.7,13.78,13.78-6.7,6.73Zm3.8,23.78-6.72,6.73-13.78-13.78,6.73-6.72ZM574.73,648l-6.7,6.7-13.81-13.78,6.73-6.72Zm111.49-49.81-13.78-13.77,6.73-6.73,13.77,13.77Zm-23.78-7.08-13.77-13.77,6.72-6.73,13.78,13.81Z"/><path class="cls-20" d="M536.58,435l13.77,13.77-6.7,6.73-13.8-13.81ZM527,475.48l13.78,13.77L534,496l-13.78-13.77Zm23.78,3.81-13.81-13.81,6.72-6.7,13.78,13.78Zm29.2,12.54,6.69-6.7,13.81,13.78-6.73,6.73Zm-89.26-72.57,6.73-6.73,13.77,13.78L504.45,433Zm-17.05-13.81,13.78,13.81-6.7,6.69L466.9,412.18ZM464,442.68l-13.78-13.8,6.73-6.7L470.71,436Zm-6.69,10L464,446l13.77,13.74L471,466.43Zm-32.17,28.88-6.72,6.73-13.78-13.81,6.73-6.69Zm18.36-15.08,13.73,13.78L450.52,487l-13.77-13.78ZM474,436l6.73-6.73L494.45,443l-6.7,6.73Zm43,46.25-6.73,6.7-13.77-13.78,6.72-6.73Zm-27.27,27.23-13.77-13.77,6.73-6.73,13.77,13.81Zm-9.61,43.75L493.85,567l-6.7,6.7-13.8-13.78Zm44.27-5.77,13.77,13.77-6.69,6.73-13.8-13.77Zm-5.42-5.5-6.73,6.73-13.77-13.77,6.69-6.73Zm-61.37-31.17-13.77-13.81,6.73-6.7L464.29,504Zm-16.69,16.69L427.1,513.63l6.69-6.69,13.81,13.77Zm10-6.73,6.68-6.69,13.81,13.77-6.73,6.73Zm-27.06-7.08-6.73,6.73-13.77-13.74,6.73-6.73Zm97.61,64.29-6.73,6.7-13.77-13.78,6.73-6.73Zm-37.2,9.62,6.7-6.69,13.81,13.77L498,601.35Zm99.87-41.43-13.81-13.77,6.73-6.73,13.77,13.77Zm32.09-1.3L602.41,531l6.73-6.7,13.78,13.74Zm-53-36.25,6.73-6.73,13.77,13.78L577,522.33Zm-16.7,16.7,6.73-6.73L567,532.34,560.32,539Zm5.43,22.12-13.78-13.77,6.73-6.73,13.77,13.81Zm4.89,29.24,6.73-6.69,13.74,13.74-6.69,6.72Zm-4.58,32.13-6.73,6.69L531.78,601.7l6.7-6.73Zm-13.42,16.7,6.69-6.73,13.81,13.81-6.73,6.69Zm25-25.05,6.73-6.73,13.77,13.77-6.73,6.73Zm61-30.19,6.72-6.69,13.78,13.77L638.66,584Zm-18.36,15.08-13.77-13.78,6.73-6.73,13.77,13.78Zm24.13,40.82,6.73-6.69,13.77,13.78-6.69,6.72ZM401.35,474.46l-6.73,6.73-13.78-13.77,6.73-6.73ZM606.89,646.65l-6.73,6.73-13.77-13.81,6.69-6.69Zm-23.43,23.43L569.65,656.3l6.73-6.72,13.78,13.77ZM566.38,656.3l-6.69,6.7-13.81-13.78,6.72-6.72Zm75.21-102.79,6.72-6.73,13.78,13.81-6.7,6.69Zm5.81,55.91,6.69-6.73L667.9,616.5l-6.73,6.69Z"/><path class="cls-5" d="M194.19,508q-13.69-11.22-44.53-.32a202.88,202.88,0,0,0-23,10l-46.46-46.5a181.43,181.43,0,0,1,32.94-.11q44.63,4.18,76.68,32.69l2,1.84,1,.88,1.52,1.44Z"/><path class="cls-1" d="M189.78,503.8q-32.07-28.51-76.68-32.69a181.43,181.43,0,0,0-32.94.11L69.38,460.44,56.77,447.83,43.31,434.37a244.81,244.81,0,0,1,40.79,7.79q58.07,16.32,105.75,61.57Zm4.41,4.23c.42.34.83.69,1.23,1.06l.18.18.24.24v0h0l.24.24.18.18c.36.4.72.81,1.06,1.23l.06-.07.53.57-.14.06q10.55,13.77-.14,44a200.9,200.9,0,0,1-10,23l-26.39-26.39-4.12-4.15L153,544.07l-26.39-26.35a202.88,202.88,0,0,1,23-10Q180.5,496.82,194.19,508Z"/><path class="cls-3" d="M201.58,515.61q28.51,32.07,32.69,76.68a180.42,180.42,0,0,1-.07,32.94l-46.53-46.46a200.9,200.9,0,0,0,10-23q10.68-30.21.14-44l.14-.06c.61.63,1.21,1.26,1.8,1.9S201,514.94,201.58,515.61Zm-44.42,32.62-22.93,22.93a6.5,6.5,0,0,1,1.41,2.08,6.94,6.94,0,0,1,.49,3.1,8.68,8.68,0,0,1-8,8,6.51,6.51,0,0,1-4.55-1.3,5.59,5.59,0,0,1-.63-.57,4.68,4.68,0,0,1-.56-.63,6.57,6.57,0,0,1-1.31-4.55,8.61,8.61,0,0,1,8-8,6.83,6.83,0,0,1,3.07.43l.07,0,2.61-3.24.1-.11L153,544.07Z"/><path class="cls-4" d="M257.56,648.62,244.94,636,234.2,625.23a180.42,180.42,0,0,0,.07-32.94q-4.17-44.61-32.69-76.68l.07-.11q45.24,47.71,61.58,105.79A245,245,0,0,1,271,662.08Z"/><path class="cls-11" d="M69.38,460.44l65.52,106-.1.11-2.61,3.24-.07,0L56.77,447.83Zm66.26,112.8,3.24-2.64.11-.07,106,65.48,12.62,12.61Z"/><path class="cls-24" d="M139,570.53l-.11.07-3.24,2.64a6.5,6.5,0,0,0-1.41-2.08l22.93-22.93,4.12,4.15Z"/></svg>