<svg xmlns="http://www.w3.org/2000/svg" width="340.068" height="121.016" viewBox="0 0 340.068 121.016">
  <path id="lode-wordmark-black" d="M234.232,0h0a7.653,7.653,0,0,0-7.653,7.653V41.62a45.331,45.331,0,0,0-67.88,8.787h0a45.107,45.107,0,0,0-7.643,25.106h0v.056a30.083,30.083,0,1,1-15.3-26.185,7.439,7.439,0,0,0,9.522-1.767l.381-.474a7.346,7.346,0,0,0-2.148-10.879,44.773,44.773,0,0,0-22.633-6.1A45.47,45.47,0,0,0,75.514,75.049h0a2.306,2.306,0,0,0,0,.251h0a37.034,37.034,0,0,0,.13,3.785A45.4,45.4,0,0,0,158.7,100.75h0a45.173,45.173,0,0,0,7.634-25.171v-.26h.046A30.1,30.1,0,1,1,199.3,105.576a29.542,29.542,0,0,1-15.873-2.883,7.625,7.625,0,0,0-9.354,2.148h0a7.653,7.653,0,0,0,2.6,11.586,44.94,44.94,0,0,0,23.247,4.454,45.563,45.563,0,0,0,41.844-41.844c.1-1.395.139-2.79.112-4.156V7.653A7.643,7.643,0,0,0,234.232,0ZM151.056,75.579Zm-81.084,28.1a7.653,7.653,0,0,1-2.194,11.363,44.9,44.9,0,0,1-22.317,5.951A45.468,45.468,0,0,1,0,75.588c0-.186,0-.363,0-.539H0V12.283A7.653,7.653,0,0,1,8.155,4.649,7.829,7.829,0,0,1,15.3,12.544V75.049h.084c0,.177-.056.344-.056.53A30.155,30.155,0,0,0,45.442,105.7a29.458,29.458,0,0,0,14.617-3.868,7.727,7.727,0,0,1,9.94,1.86ZM340,74.24h0a7.643,7.643,0,0,1-7.643,7.643l-34.488-.056a7.643,7.643,0,0,1-7.643-7.653h0a7.643,7.643,0,0,1,7.643-7.643l25.85.065a29.756,29.756,0,0,0-7.764-13.5,30.125,30.125,0,1,0-6.76,47.46,7.7,7.7,0,0,1,9.857,1.86h0a7.634,7.634,0,0,1-2.194,11.335,45.108,45.108,0,0,1-44.736,0v.065A45.749,45.749,0,0,1,249.286,77.55h.112A45.386,45.386,0,1,1,340.068,74.3Z" opacity="0.7"/>
</svg>
